HIERARCHY
ROOT mixamorig:Hips
{
	OFFSET -0.000008 104.274872 1.554316
	CHANNELS 6 Xposition Yposition Zposition Xrotation Yrotation Zrotation
	JOINT mixamorig:Spine
	{
		OFFSET -0.000005 10.181595 0.131519
		CHANNELS 6 Xposition Yposition Zposition Xrotation Yrotation Zrotation
		JOINT mixamorig:Spine1
		{
			OFFSET -0.000000 9.893959 -1.470707
			CHANNELS 6 Xposition Yposition Zposition Xrotation Yrotation Zrotation
			JOINT mixamorig:Spine2
			{
				OFFSET -0.000000 9.220757 -1.370641
				CHANNELS 6 Xposition Yposition Zposition Xrotation Yrotation Zrotation
				JOINT mixamorig:Neck
				{
					OFFSET 0.000001 16.740417 -2.049036
					CHANNELS 6 Xposition Yposition Zposition Xrotation Yrotation Zrotation
					JOINT mixamorig:Head
					{
						OFFSET 0.000000 9.617874 1.685006
						CHANNELS 6 Xposition Yposition Zposition Xrotation Yrotation Zrotation
						JOINT mixamorig:HeadTop_End
						{
							OFFSET 0.000002 22.037354 7.501101
							CHANNELS 6 Xposition Yposition Zposition Xrotation Yrotation Zrotation
							End Site
							{
								OFFSET 0.000168 2310.654297 -282.823242
							}
						}
					}
				}
				JOINT mixamorig:RightShoulder
				{
					OFFSET -4.569970 11.014908 -2.160885
					CHANNELS 6 Xposition Yposition Zposition Xrotation Yrotation Zrotation
					JOINT mixamorig:RightArm
					{
						OFFSET -10.592851 -0.524811 -2.232101
						CHANNELS 6 Xposition Yposition Zposition Xrotation Yrotation Zrotation
						JOINT mixamorig:RightForeArm
						{
							OFFSET -27.841511 0.000031 -0.000004
							CHANNELS 6 Xposition Yposition Zposition Xrotation Yrotation Zrotation
							JOINT mixamorig:RightHand
							{
								OFFSET -28.328831 -0.000015 0.000015
								CHANNELS 6 Xposition Yposition Zposition Xrotation Yrotation Zrotation
								JOINT mixamorig:RightHandThumb1
								{
									OFFSET -2.464806 -1.573990 2.681852
									CHANNELS 6 Xposition Yposition Zposition Xrotation Yrotation Zrotation
									JOINT mixamorig:RightHandThumb2
									{
										OFFSET -3.215179 -1.872803 1.924282
										CHANNELS 6 Xposition Yposition Zposition Xrotation Yrotation Zrotation
										JOINT mixamorig:RightHandThumb3
										{
											OFFSET -2.654831 -1.527969 1.512609
											CHANNELS 6 Xposition Yposition Zposition Xrotation Yrotation Zrotation
											JOINT mixamorig:RightHandThumb4
											{
												OFFSET -2.018814 -1.152008 1.108052
												CHANNELS 6 Xposition Yposition Zposition Xrotation Yrotation Zrotation
												End Site
												{
													OFFSET -188.809540 -114.533607 132.431396
												}
											}
										}
									}
								}
								JOINT mixamorig:RightHandIndex1
								{
									OFFSET -9.108284 -0.517868 2.259835
									CHANNELS 6 Xposition Yposition Zposition Xrotation Yrotation Zrotation
									JOINT mixamorig:RightHandIndex2
									{
										OFFSET -3.699989 0.000000 0.001215
										CHANNELS 6 Xposition Yposition Zposition Xrotation Yrotation Zrotation
										JOINT mixamorig:RightHandIndex3
										{
											OFFSET -2.850006 0.000031 -0.000522
											CHANNELS 6 Xposition Yposition Zposition Xrotation Yrotation Zrotation
											JOINT mixamorig:RightHandIndex4
											{
												OFFSET -2.772186 -0.000015 -0.000020
												CHANNELS 6 Xposition Yposition Zposition Xrotation Yrotation Zrotation
												End Site
												{
													OFFSET -277.218445 0.000000 -0.050231
												}
											}
										}
									}
								}
								JOINT mixamorig:RightHandMiddle1
								{
									OFFSET -9.532516 -0.000031 -0.000023
									CHANNELS 6 Xposition Yposition Zposition Xrotation Yrotation Zrotation
									JOINT mixamorig:RightHandMiddle2
									{
										OFFSET -3.700005 -0.000015 0.003713
										CHANNELS 6 Xposition Yposition Zposition Xrotation Yrotation Zrotation
										JOINT mixamorig:RightHandMiddle3
										{
											OFFSET -2.949974 0.000015 -0.002054
											CHANNELS 6 Xposition Yposition Zposition Xrotation Yrotation Zrotation
											JOINT mixamorig:RightHandMiddle4
											{
												OFFSET -2.946640 0.000000 -0.000156
												CHANNELS 6 Xposition Yposition Zposition Xrotation Yrotation Zrotation
												End Site
												{
													OFFSET -294.664337 0.000000 -0.113670
												}
											}
										}
									}
								}
								JOINT mixamorig:RightHandRing1
								{
									OFFSET -9.103600 -0.043076 -1.865134
									CHANNELS 6 Xposition Yposition Zposition Xrotation Yrotation Zrotation
									JOINT mixamorig:RightHandRing2
									{
										OFFSET -3.379288 0.000000 -0.001055
										CHANNELS 6 Xposition Yposition Zposition Xrotation Yrotation Zrotation
										JOINT mixamorig:RightHandRing3
										{
											OFFSET -2.889687 -0.000015 0.000379
											CHANNELS 6 Xposition Yposition Zposition Xrotation Yrotation Zrotation
											JOINT mixamorig:RightHandRing4
											{
												OFFSET -2.638809 -0.000015 0.000941
												CHANNELS 6 Xposition Yposition Zposition Xrotation Yrotation Zrotation
												End Site
												{
													OFFSET -263.880371 0.000000 0.516020
												}
											}
										}
									}
								}
								JOINT mixamorig:RightHandPinky1
								{
									OFFSET -8.076683 -0.486710 -3.806280
									CHANNELS 6 Xposition Yposition Zposition Xrotation Yrotation Zrotation
									JOINT mixamorig:RightHandPinky2
									{
										OFFSET -3.600014 -0.000015 -0.003747
										CHANNELS 6 Xposition Yposition Zposition Xrotation Yrotation Zrotation
										JOINT mixamorig:RightHandPinky3
										{
											OFFSET -2.099983 0.000000 -0.005739
											CHANNELS 6 Xposition Yposition Zposition Xrotation Yrotation Zrotation
											JOINT mixamorig:RightHandPinky4
											{
												OFFSET -2.115768 -0.000031 -0.003680
												CHANNELS 6 Xposition Yposition Zposition Xrotation Yrotation Zrotation
												End Site
												{
													OFFSET -211.577087 0.000000 -0.350686
												}
											}
										}
									}
								}
							}
						}
					}
				}
				JOINT mixamorig:LeftShoulder
				{
					OFFSET 4.570447 11.014725 -2.160855
					CHANNELS 6 Xposition Yposition Zposition Xrotation Yrotation Zrotation
					JOINT mixamorig:LeftArm
					{
						OFFSET 10.592371 -0.524597 -2.232119
						CHANNELS 6 Xposition Yposition Zposition Xrotation Yrotation Zrotation
						JOINT mixamorig:LeftForeArm
						{
							OFFSET 27.841532 -0.000031 0.000026
							CHANNELS 6 Xposition Yposition Zposition Xrotation Yrotation Zrotation
							JOINT mixamorig:LeftHand
							{
								OFFSET 28.328846 -0.000061 0.000022
								CHANNELS 6 Xposition Yposition Zposition Xrotation Yrotation Zrotation
								JOINT mixamorig:LeftHandThumb1
								{
									OFFSET 2.466141 -1.576172 2.681732
									CHANNELS 6 Xposition Yposition Zposition Xrotation Yrotation Zrotation
									JOINT mixamorig:LeftHandThumb2
									{
										OFFSET 3.217812 -1.872070 1.916482
										CHANNELS 6 Xposition Yposition Zposition Xrotation Yrotation Zrotation
										JOINT mixamorig:LeftHandThumb3
										{
											OFFSET 2.656029 -1.528778 1.514513
											CHANNELS 6 Xposition Yposition Zposition Xrotation Yrotation Zrotation
											JOINT mixamorig:LeftHandThumb4
											{
												OFFSET 2.020889 -1.154053 1.115139
												CHANNELS 6 Xposition Yposition Zposition Xrotation Yrotation Zrotation
												End Site
												{
													OFFSET 190.885437 -115.081749 130.048782
												}
											}
										}
									}
								}
								JOINT mixamorig:LeftHandIndex1
								{
									OFFSET 9.109314 -0.518021 2.259871
									CHANNELS 6 Xposition Yposition Zposition Xrotation Yrotation Zrotation
									JOINT mixamorig:LeftHandIndex2
									{
										OFFSET 3.699989 0.000000 -0.000322
										CHANNELS 6 Xposition Yposition Zposition Xrotation Yrotation Zrotation
										JOINT mixamorig:LeftHandIndex3
										{
											OFFSET 2.850006 0.000000 0.000352
											CHANNELS 6 Xposition Yposition Zposition Xrotation Yrotation Zrotation
											JOINT mixamorig:LeftHandIndex4
											{
												OFFSET 2.774864 -0.000031 -0.000027
												CHANNELS 6 Xposition Yposition Zposition Xrotation Yrotation Zrotation
												End Site
												{
													OFFSET 277.486267 0.000000 -0.009857
												}
											}
										}
									}
								}
								JOINT mixamorig:LeftHandMiddle1
								{
									OFFSET 9.533394 0.000061 0.000044
									CHANNELS 6 Xposition Yposition Zposition Xrotation Yrotation Zrotation
									JOINT mixamorig:LeftHandMiddle2
									{
										OFFSET 3.699989 -0.000015 -0.000231
										CHANNELS 6 Xposition Yposition Zposition Xrotation Yrotation Zrotation
										JOINT mixamorig:LeftHandMiddle3
										{
											OFFSET 2.949997 -0.000015 -0.000059
											CHANNELS 6 Xposition Yposition Zposition Xrotation Yrotation Zrotation
											JOINT mixamorig:LeftHandMiddle4
											{
												OFFSET 2.952896 0.000031 0.000063
												CHANNELS 6 Xposition Yposition Zposition Xrotation Yrotation Zrotation
												End Site
												{
													OFFSET 295.289337 0.000000 0.022810
												}
											}
										}
									}
								}
								JOINT mixamorig:LeftHandRing1
								{
									OFFSET 9.104523 -0.042999 -1.865074
									CHANNELS 6 Xposition Yposition Zposition Xrotation Yrotation Zrotation
									JOINT mixamorig:LeftHandRing2
									{
										OFFSET 3.150009 -0.000031 0.000043
										CHANNELS 6 Xposition Yposition Zposition Xrotation Yrotation Zrotation
										JOINT mixamorig:LeftHandRing3
										{
											OFFSET 2.949982 -0.000015 0.000040
											CHANNELS 6 Xposition Yposition Zposition Xrotation Yrotation Zrotation
											JOINT mixamorig:LeftHandRing4
											{
												OFFSET 2.644348 0.000000 0.000057
												CHANNELS 6 Xposition Yposition Zposition Xrotation Yrotation Zrotation
												End Site
												{
													OFFSET 264.434631 0.000000 0.012105
												}
											}
										}
									}
								}
								JOINT mixamorig:LeftHandPinky1
								{
									OFFSET 8.077789 -0.486847 -3.806259
									CHANNELS 6 Xposition Yposition Zposition Xrotation Yrotation Zrotation
									JOINT mixamorig:LeftHandPinky2
									{
										OFFSET 3.599953 0.000031 0.014727
										CHANNELS 6 Xposition Yposition Zposition Xrotation Yrotation Zrotation
										JOINT mixamorig:LeftHandPinky3
										{
											OFFSET 2.100021 0.000015 0.007705
											CHANNELS 6 Xposition Yposition Zposition Xrotation Yrotation Zrotation
											JOINT mixamorig:LeftHandPinky4
											{
												OFFSET 2.125504 0.000031 0.007517
												CHANNELS 6 Xposition Yposition Zposition Xrotation Yrotation Zrotation
												End Site
												{
													OFFSET 212.550781 0.000000 0.625752
												}
											}
										}
									}
								}
							}
						}
					}
				}
			}
		}
	}
	JOINT mixamorig:RightUpLeg
	{
		OFFSET -8.207787 -6.751648 -1.599560
		CHANNELS 6 Xposition Yposition Zposition Xrotation Yrotation Zrotation
		JOINT mixamorig:RightLeg
		{
			OFFSET -0.000002 -44.370117 0.345942
			CHANNELS 6 Xposition Yposition Zposition Xrotation Yrotation Zrotation
			JOINT mixamorig:RightFoot
			{
				OFFSET 0.000003 -44.423679 -3.043532
				CHANNELS 6 Xposition Yposition Zposition Xrotation Yrotation Zrotation
				JOINT mixamorig:RightToeBase
				{
					OFFSET -0.000002 -8.728671 10.710558
					CHANNELS 6 Xposition Yposition Zposition Xrotation Yrotation Zrotation
					JOINT mixamorig:RightToe_End
					{
						OFFSET -0.000001 -0.000679 9.278119
						CHANNELS 6 Xposition Yposition Zposition Xrotation Yrotation Zrotation
						End Site
						{
							OFFSET 0.000000 -0.067690 927.812134
						}
					}
				}
			}
		}
	}
	JOINT mixamorig:LeftUpLeg
	{
		OFFSET 8.207793 -6.751686 -1.599556
		CHANNELS 6 Xposition Yposition Zposition Xrotation Yrotation Zrotation
		JOINT mixamorig:LeftLeg
		{
			OFFSET -0.000004 -44.370014 0.346954
			CHANNELS 6 Xposition Yposition Zposition Xrotation Yrotation Zrotation
			JOINT mixamorig:LeftFoot
			{
				OFFSET -0.000001 -44.423672 -3.044401
				CHANNELS 6 Xposition Yposition Zposition Xrotation Yrotation Zrotation
				JOINT mixamorig:LeftToeBase
				{
					OFFSET -0.000002 -8.728669 10.710558
					CHANNELS 6 Xposition Yposition Zposition Xrotation Yrotation Zrotation
					JOINT mixamorig:LeftToe_End
					{
						OFFSET -0.000003 -0.000679 9.278133
						CHANNELS 6 Xposition Yposition Zposition Xrotation Yrotation Zrotation
						End Site
						{
							OFFSET 0.000000 -0.068021 927.813477
						}
					}
				}
			}
		}
	}
}
MOTION
Frames: 3
Frame Time: 0.033333
0.000006 104.270477 1.554256 0.000010 0.000003 -0.000113 -0.000005 10.181587 0.131522 0.000001 -0.000003 0.000084 -0.000000 9.893967 -1.470711 0.000001 0.000000 -0.000000 -0.000000 9.220802 -1.370642 0.000000 -0.000000 -0.000000 0.000001 16.740433 -2.049030 0.000000 -0.000000 -0.000000 0.000000 9.617859 1.685014 0.000000 0.000000 0.000000 0.000002 22.037384 7.501101 0.000000 -0.000000 0.000000 -4.569968 11.014880 -2.160881 0.000008 0.000001 -0.000038 -10.592875 -0.524689 -2.232001 71.446613 10.674238 -7.687540 -27.841549 0.000033 0.000499 114.923588 61.306972 -85.779362 -28.328814 0.000005 0.000020 -0.000321 -0.000045 0.000007 -2.464437 -1.573840 2.682371 -40.382640 -163.030373 9.062446 -3.215277 -1.872616 1.924670 158.813947 31.939143 2.752940 -2.654953 -1.527893 1.513110 152.110280 24.889358 -44.217767 -2.018834 -1.152012 1.108073 -0.000005 -0.000001 0.000002 -9.108400 -0.517569 2.260118 98.976032 18.149935 -21.232099 -3.700073 0.000328 0.001506 94.890684 13.422882 -14.582439 -2.850075 0.000374 -0.000278 93.424714 10.304436 -10.934822 -2.772175 0.000001 -0.000029 0.000002 0.000001 -0.000001 -9.532603 0.000267 0.000215 88.813954 15.341290 -15.169194 -3.700059 0.000330 0.003934 89.078951 10.382793 -10.126764 -2.950048 0.000334 -0.001840 89.009830 10.189514 -10.008954 -2.946615 0.000002 -0.000162 -0.000000 -0.000002 -0.000001 -9.103707 -0.042761 -1.864896 86.561535 16.134515 -15.163739 -3.379320 0.000321 -0.000831 89.176350 8.796936 -8.688781 -2.889755 0.000364 0.000626 91.673337 5.837373 -6.056243 -2.638822 -0.000016 0.000945 0.000002 0.000001 -0.000001 -8.076752 -0.486397 -3.806062 79.720397 15.808790 -13.099517 -3.600031 0.000278 -0.003552 82.776948 8.186281 -6.904458 -2.099994 0.000317 -0.005541 83.524737 5.030627 -4.298183 -2.115774 -0.000054 -0.003676 0.000001 0.000003 -0.000004 4.570446 11.014691 -2.160851 -0.000018 0.000010 -0.000021 10.592361 -0.524518 -2.232287 73.477399 5.973219 -4.460292 27.841835 0.000142 -0.000215 106.589712 -60.463853 76.028666 28.328829 -0.000030 0.000023 0.000020 -0.000090 0.000001 2.465975 -1.576161 2.681901 -40.795521 160.633209 -6.517984 3.217833 -1.871802 1.916376 158.078991 -27.552903 19.704549 2.656113 -1.528640 1.514449 142.173420 -27.251729 45.641715 2.020884 -1.154049 1.115141 0.000003 -0.000001 -0.000001 9.109378 -0.517830 2.259720 92.039955 -14.890033 15.410797 3.700059 0.000172 -0.000466 89.842027 -13.335575 13.316109 2.850040 0.000195 0.000200 86.070438 -11.514621 10.754235 2.774869 -0.000045 -0.000026 -0.000002 0.000003 0.000001 9.533453 0.000233 -0.000096 93.184606 -14.336210 15.137591 3.700034 0.000193 -0.000378 90.750135 -12.456741 12.616866 2.950055 0.000202 -0.000202 89.522081 -14.650829 14.533423 2.952884 -0.000015 0.000067 -0.000002 -0.000002 -0.000001 9.104583 -0.042830 -1.865226 90.644929 -14.079520 14.239202 3.150059 0.000205 -0.000099 95.806100 -12.790664 14.146069 2.950028 0.000208 -0.000075 97.589634 -13.470613 15.365129 2.644310 0.000044 0.000055 0.000003 -0.000002 -0.000000 8.077847 -0.486719 -3.806393 79.438017 -17.044824 14.687050 3.600003 0.000199 0.014574 81.065849 -12.893401 11.472907 2.100043 0.000181 0.007526 83.281371 -11.282480 10.464254 2.125515 -0.000017 0.007510 0.000002 0.000001 -0.000001 -8.207786 -6.751667 -1.599560 -0.077001 -0.000003 0.000080 -0.000002 -44.370110 0.345938 0.153719 -0.000000 -0.000000 0.000000 -44.423679 -3.043532 -0.076700 0.000000 -0.000002 -0.000006 -8.728667 10.710559 -0.000009 -0.000000 -0.000000 -0.000001 -0.000679 9.278123 0.000000 -0.000000 -0.000000 8.207792 -6.751710 -1.599556 -0.074518 -0.000003 0.000081 -0.000002 -44.370014 0.346960 0.148822 0.000002 0.000000 -0.000001 -44.423664 -3.044403 -0.074314 0.000000 -0.000002 -0.000004 -8.728671 10.710558 0.000007 -0.000000 -0.000000 0.000000 -0.000680 9.278137 -0.000000 0.000000 -0.000001 
0.000006 104.270477 1.554256 0.000010 0.000003 -0.000113 -0.000005 10.181587 0.131522 0.000001 -0.000003 0.000084 -0.000000 9.893967 -1.470711 0.000001 0.000000 -0.000000 -0.000000 9.220802 -1.370642 0.000000 -0.000000 -0.000000 0.000001 16.740433 -2.049030 0.000000 -0.000000 -0.000000 0.000000 9.617859 1.685014 0.000000 0.000000 0.000000 0.000002 22.037384 7.501101 0.000000 -0.000000 0.000000 -4.569968 11.014880 -2.160881 0.000008 0.000001 -0.000038 -10.592875 -0.524692 -2.231998 71.487267 11.816889 -8.519500 -27.841539 0.000023 0.000528 116.802519 62.001165 -88.652666 -28.328821 0.000022 0.000023 -0.000318 -0.000046 0.000007 -2.464431 -1.573754 2.682341 -48.098178 -168.734223 -10.162246 -3.215269 -1.872577 1.924654 156.207888 31.513571 2.115387 -2.654960 -1.527907 1.513091 146.784167 26.613800 -40.858478 -2.018814 -1.152020 1.108058 -0.000003 0.000000 -0.000000 -9.108381 -0.517574 2.260117 95.952683 16.377318 -18.196983 -3.700070 0.000317 0.001506 93.960809 13.179875 -14.089652 -2.850082 0.000375 -0.000283 92.494101 10.156928 -10.605493 -2.772183 -0.000017 -0.000018 -0.000001 0.000002 -0.000001 -9.532588 0.000267 0.000211 87.783586 16.017318 -15.553982 -3.700080 0.000335 0.003949 88.696789 11.567606 -11.217126 -2.950061 0.000318 -0.001821 90.427326 10.772464 -10.845555 -2.946622 0.000002 -0.000159 -0.000001 0.000002 -0.000001 -9.103720 -0.042772 -1.864901 83.988384 17.894647 -16.093184 -3.379341 0.000302 -0.000842 86.791193 9.152303 -8.671830 -2.889744 0.000349 0.000624 92.948185 5.712745 -6.061103 -2.638822 0.000001 0.000948 -0.000002 0.000001 -0.000001 -8.076752 -0.486401 -3.806065 77.255512 16.742641 -13.291614 -3.600044 0.000266 -0.003567 79.596115 7.717107 -6.138154 -2.100006 0.000314 -0.005536 83.811769 4.346990 -3.708160 -2.115773 -0.000041 -0.003674 -0.000000 -0.000003 -0.000004 4.570446 11.014691 -2.160851 -0.000018 0.000010 -0.000021 10.592354 -0.524537 -2.232260 72.825383 12.828527 -9.480369 27.841846 0.000128 -0.000216 106.565855 -61.647211 77.320310 28.328850 -0.000043 0.000019 0.000020 -0.000089 -0.000001 2.466208 -1.576125 2.681871 -9.315605 157.726785 -66.606557 3.217876 -1.871845 1.916419 164.175112 -21.788773 40.685938 2.656098 -1.528664 1.514472 143.737083 -26.157857 54.503742 2.020890 -1.154086 1.115147 0.000006 0.000005 0.000006 9.109397 -0.517831 2.259727 95.515653 -18.174438 19.964751 3.700039 0.000203 -0.000464 93.924684 -12.367561 13.255544 2.850035 0.000211 0.000189 92.918426 -9.494561 9.987155 2.774893 -0.000012 -0.000024 0.000004 -0.000004 -0.000002 9.533483 0.000245 -0.000098 94.088670 -17.564281 18.832483 3.700052 0.000222 -0.000360 95.131428 -10.476531 11.450360 2.950049 0.000196 -0.000201 95.468095 -9.590046 10.549842 2.952862 -0.000014 0.000067 0.000002 0.000001 0.000001 9.104601 -0.042822 -1.865218 92.617351 -17.071749 17.859457 3.150032 0.000223 -0.000079 97.598062 -12.752816 14.550781 2.950026 0.000192 -0.000090 99.090841 -10.789845 12.641641 2.644317 0.000032 0.000066 0.000001 0.000000 0.000000 8.077853 -0.486708 -3.806406 79.662108 -19.660286 16.956114 3.600011 0.000187 0.014592 80.777444 -17.300915 15.203660 2.100048 0.000173 0.007543 82.022956 -12.323106 11.148969 2.125500 -0.000001 0.007519 -0.000001 0.000001 0.000001 -8.207786 -6.751667 -1.599560 -0.077001 -0.000003 0.000080 -0.000002 -44.370110 0.345938 0.153719 -0.000000 -0.000000 0.000000 -44.423679 -3.043532 -0.076700 0.000000 -0.000002 -0.000006 -8.728667 10.710559 -0.000009 -0.000000 -0.000000 -0.000001 -0.000679 9.278123 0.000000 -0.000000 -0.000000 8.207792 -6.751710 -1.599556 -0.074518 -0.000003 0.000081 -0.000002 -44.370014 0.346960 0.148822 0.000002 0.000000 -0.000001 -44.423664 -3.044403 -0.074314 0.000000 -0.000002 -0.000004 -8.728671 10.710558 0.000007 -0.000000 -0.000000 0.000000 -0.000680 9.278137 -0.000000 0.000000 -0.000001 
0.000006 104.270477 1.554256 0.000010 0.000003 -0.000113 -0.000005 10.181587 0.131522 0.000001 -0.000003 0.000084 -0.000000 9.893967 -1.470711 0.000001 0.000000 -0.000000 -0.000000 9.220802 -1.370642 0.000000 -0.000000 -0.000000 0.000001 16.740433 -2.049030 0.000000 -0.000000 -0.000000 0.000000 9.617859 1.685014 0.000000 0.000000 0.000000 0.000002 22.037384 7.501101 0.000000 -0.000000 0.000000 -4.569968 11.014880 -2.160881 0.000008 0.000001 -0.000038 -10.592875 -0.524690 -2.232011 71.257014 11.337832 -8.138546 -27.841543 0.000023 0.000511 118.959711 62.412459 -91.557962 -28.328835 0.000006 0.000021 -0.000321 -0.000044 0.000007 -2.464440 -1.573741 2.682334 -48.362749 -169.261582 -10.900510 -3.215276 -1.872594 1.924658 156.468733 31.361459 1.085684 -2.654952 -1.527896 1.513087 147.535255 26.545296 -39.826007 -2.018823 -1.152012 1.108068 -0.000005 0.000000 0.000004 -9.108380 -0.517556 2.260109 96.672394 16.582591 -18.654039 -3.700075 0.000319 0.001490 94.537953 13.461402 -14.535201 -2.850093 0.000375 -0.000272 92.561733 10.329509 -10.798300 -2.772162 -0.000003 -0.000025 -0.000006 0.000001 -0.000001 -9.532595 0.000256 0.000214 88.560390 16.486057 -16.221937 -3.700075 0.000313 0.003946 89.311000 12.163213 -11.925259 -2.950049 0.000338 -0.001814 91.033697 11.008498 -11.200472 -2.946617 0.000017 -0.000158 0.000003 0.000001 0.000000 -9.103703 -0.042759 -1.864906 84.689899 18.188891 -16.558936 -3.379331 0.000324 -0.000834 87.083143 9.642323 -9.182125 -2.889741 0.000349 0.000634 93.383221 5.981941 -6.392963 -2.638817 0.000004 0.000939 0.000003 -0.000000 0.000000 -8.076750 -0.486386 -3.806076 77.423063 17.010412 -13.547115 -3.600049 0.000268 -0.003557 79.863619 8.028447 -6.427037 -2.099984 0.000320 -0.005543 84.334361 4.525438 -3.903448 -2.115759 -0.000041 -0.003684 -0.000000 0.000000 -0.000004 4.570446 11.014691 -2.160851 -0.000018 0.000010 -0.000021 10.592356 -0.524547 -2.232266 72.194027 15.922641 -11.644711 27.841848 0.000106 -0.000210 106.708578 -64.261917 80.346609 28.328835 -0.000029 0.000032 0.000021 -0.000089 -0.000001 2.466241 -1.575964 2.681834 22.939440 173.761242 -121.069802 3.217860 -1.871968 1.916502 168.280999 -6.236829 79.173408 2.656088 -1.528691 1.514518 149.948511 -22.261308 66.209880 2.020886 -1.154059 1.115141 0.000002 0.000002 0.000008 9.109402 -0.517811 2.259766 103.231739 -20.396058 25.573389 3.700073 0.000188 -0.000448 100.673457 -15.067353 18.145926 2.850054 0.000210 0.000203 97.871276 -11.554207 13.245799 2.774884 -0.000041 -0.000032 0.000005 -0.000002 0.000001 9.533469 0.000246 -0.000067 97.012476 -19.246278 21.692163 3.700074 0.000216 -0.000375 99.420370 -12.410904 14.614257 2.950056 0.000206 -0.000198 98.660081 -10.576464 12.300313 2.952859 -0.000016 0.000070 -0.000001 0.000004 0.000002 9.104589 -0.042827 -1.865203 93.890929 -18.784357 20.081472 3.150055 0.000204 -0.000091 99.353851 -14.942138 17.568541 2.950034 0.000192 -0.000078 99.592908 -11.832796 13.982738 2.644313 0.000030 0.000049 -0.000001 0.000002 0.000002 8.077843 -0.486717 -3.806385 79.165451 -21.758835 18.572085 3.600011 0.000176 0.014591 80.904137 -18.727446 16.468124 2.100045 0.000165 0.007532 81.441427 -13.391033 11.963439 2.125511 -0.000014 0.007518 -0.000002 0.000001 0.000000 -8.207786 -6.751667 -1.599560 -0.077001 -0.000003 0.000080 -0.000002 -44.370110 0.345938 0.153719 -0.000000 -0.000000 0.000000 -44.423679 -3.043532 -0.076700 0.000000 -0.000002 -0.000006 -8.728667 10.710559 -0.000009 -0.000000 -0.000000 -0.000001 -0.000679 9.278123 0.000000 -0.000000 -0.000000 8.207792 -6.751710 -1.599556 -0.074518 -0.000003 0.000081 -0.000002 -44.370014 0.346960 0.148822 0.000002 0.000000 -0.000001 -44.423664 -3.044403 -0.074314 0.000000 -0.000002 -0.000004 -8.728671 10.710558 0.000007 -0.000000 -0.000000 0.000000 -0.000680 9.278137 -0.000000 0.000000 -0.000001 
